<?xml version="1.0" standalone="no"?>
<!DOCTYPE svg PUBLIC "-//W3C//DTD SVG 20010904//EN"
 "http://www.w3.org/TR/2001/REC-SVG-20010904/DTD/svg10.dtd">
<svg version="1.0" xmlns="http://www.w3.org/2000/svg"
 width="512.000000pt" height="512.000000pt" viewBox="0 0 512.000000 512.000000"
 preserveAspectRatio="xMidYMid meet">
<metadata>
Created by potrace 1.14, written by Peter Selinger 2001-2017
</metadata>
<g transform="translate(0.000000,512.000000) scale(0.100000,-0.100000)"
fill="#000000" stroke="none">
<path d="M1975 4340 c3 -6 -1 -7 -9 -4 -10 4 -16 1 -16 -8 0 -10 -11 -14 -32
-13 -22 1 -40 -6 -53 -20 -11 -12 -29 -27 -40 -33 -11 -6 -14 -12 -8 -12 10 0
10 -6 1 -25 -6 -14 -15 -25 -20 -25 -6 0 -8 -5 -6 -12 3 -7 -3 -20 -11 -30 -9
-10 -17 -23 -17 -28 -1 -6 -2 -15 -3 -21 0 -5 -6 -7 -13 -3 -6 4 -8 3 -4 -4 3
-6 3 -13 -2 -16 -5 -3 -7 -19 -4 -36 3 -22 1 -30 -9 -28 -9 2 -14 -6 -13 -24
0 -15 -3 -25 -7 -22 -9 5 -19 -9 -24 -38 -3 -12 -10 -25 -17 -29 -7 -5 -13
-23 -13 -41 0 -20 -5 -32 -12 -31 -6 1 -10 -8 -8 -22 1 -16 -4 -26 -15 -30
-12 -4 -16 -15 -15 -40 1 -21 -3 -36 -11 -39 -8 -3 -14 -17 -14 -31 0 -15 -5
-24 -12 -23 -7 2 -12 -3 -10 -9 1 -7 -4 -13 -10 -13 -10 0 -9 -3 1 -9 10 -7 9
-11 -6 -22 -12 -9 -19 -24 -18 -42 1 -16 -6 -36 -15 -45 -10 -10 -16 -25 -15
-34 2 -10 -3 -18 -11 -18 -11 0 -13 -9 -11 -35 3 -26 0 -36 -13 -40 -12 -4
-16 -12 -13 -24 3 -13 -3 -23 -17 -31 -14 -8 -19 -15 -13 -21 13 -13 4 -59
-11 -59 -6 0 -12 -9 -13 -20 -1 -11 -9 -27 -17 -35 -8 -9 -13 -22 -10 -29 3
-7 -2 -16 -10 -19 -9 -4 -16 -15 -16 -26 0 -11 -7 -27 -16 -35 -8 -9 -12 -20
-9 -26 3 -5 0 -10 -7 -10 -11 0 -11 -2 0 -9 11 -6 10 -12 -5 -26 -10 -10 -18
-23 -18 -29 0 -6 -9 -24 -19 -39 -13 -19 -16 -31 -9 -35 8 -5 8 -12 -1 -24 -7
-10 -16 -14 -20 -10 -4 4 -7 2 -6 -3 6 -26 -1 -55 -13 -55 -8 0 -12 -12 -12
-32 2 -34 -11 -61 -25 -53 -4 2 -5 -7 -2 -20 3 -17 0 -25 -10 -25 -7 0 -15
-10 -15 -22 -1 -13 -8 -27 -16 -33 -7 -5 -13 -23 -12 -38 1 -16 -6 -36 -15
-45 -10 -10 -16 -25 -15 -34 2 -11 -3 -18 -12 -18 -11 0 -14 -9 -11 -35 3 -27
0 -36 -13 -40 -11 -4 -16 -13 -14 -26 2 -11 -2 -22 -10 -26 -8 -3 -12 -9 -9
-14 3 -5 0 -9 -6 -9 -7 0 -10 -7 -6 -15 3 -8 -2 -18 -11 -23 -11 -7 -14 -19
-11 -41 3 -21 0 -31 -9 -31 -12 0 -18 -13 -14 -34 1 -4 -5 -13 -13 -20 -8 -6
-16 -20 -18 -31 -2 -11 -9 -26 -16 -34 -8 -8 -12 -27 -10 -42 3 -15 1 -26 -3
-23 -9 5 -19 -9 -24 -38 -3 -12 -10 -25 -17 -29 -7 -5 -13 -23 -13 -41 0 -20
-5 -32 -12 -31 -6 1 -10 -8 -8 -22 1 -16 -4 -26 -15 -30 -11 -4 -16 -14 -14
-30 2 -22 -6 -29 -27 -27 -4 1 -5 -14 -2 -32 3 -22 -1 -39 -12 -50 -9 -9 -13
-20 -10 -26 3 -5 0 -10 -7 -10 -8 0 -9 -3 -3 -8 6 -4 10 -38 10 -77 0 -38 -4
-73 -10 -77 -6 -5 -6 -8 1 -8 6 0 9 -13 6 -31 -3 -22 -1 -30 7 -25 6 4 12 1
13 -6 0 -7 2 -18 2 -24 1 -6 14 -22 29 -36 15 -14 27 -35 27 -47 0 -11 6 -21
14 -21 8 0 13 -8 12 -17 -2 -9 6 -25 16 -35 11 -11 17 -26 14 -34 -3 -8 1 -17
9 -20 8 -4 15 -17 15 -30 0 -13 6 -24 13 -24 7 0 14 -10 14 -22 1 -13 9 -28
17 -34 9 -6 13 -14 9 -17 -3 -4 1 -7 10 -7 15 0 23 -24 18 -53 -1 -5 3 -6 9
-2 5 3 10 1 10 -5 0 -6 5 -8 11 -4 8 4 8 1 1 -13 -8 -15 -7 -22 8 -31 11 -7
17 -20 15 -31 -2 -13 3 -21 18 -25 18 -5 20 -8 7 -16 -11 -7 -11 -10 -2 -10 7
0 10 -5 7 -10 -3 -6 4 -14 17 -19 13 -6 16 -10 8 -11 -13 0 -13 -1 0 -10 13
-9 13 -10 0 -10 -10 0 -7 -6 9 -19 13 -10 21 -23 17 -30 -4 -6 0 -14 8 -17 9
-3 16 -12 16 -19 0 -7 7 -15 15 -19 8 -3 15 -14 15 -25 0 -11 8 -24 18 -30 9
-5 16 -12 15 -15 -7 -15 -2 -36 7 -31 8 5 15 -22 11 -47 0 -4 9 -10 20 -13 15
-5 17 -10 9 -20 -8 -10 -7 -16 5 -22 14 -8 21 -25 24 -56 1 -5 6 -5 11 -2 6 3
10 1 10 -6 0 -13 38 -49 52 -49 4 0 7 -6 5 -12 -1 -8 8 -13 23 -13 15 0 24 -5
23 -12 -3 -14 0 -14 161 -15 68 0 101 3 106 12 4 7 18 13 31 14 15 1 23 7 21
16 -2 8 -1 12 3 8 4 -4 18 -3 31 2 17 7 24 6 24 -3 1 -6 9 -2 20 11 11 13 24
21 29 18 5 -4 17 2 27 11 10 10 27 18 38 18 12 0 20 6 19 13 -2 6 6 12 18 12
11 0 34 12 50 28 16 15 30 25 32 23 1 -2 12 1 25 8 12 7 20 16 17 21 -3 5 4 7
16 5 21 -4 59 26 59 46 0 5 7 6 15 3 9 -4 28 7 48 25 19 20 39 30 49 27 10 -2
16 0 13 4 -6 10 7 20 36 25 11 2 29 16 40 30 11 14 29 25 40 25 11 0 22 7 25
15 4 8 10 12 15 9 8 -4 13 8 11 27 -1 3 6 6 14 6 8 0 14 -5 14 -11 0 -6 9 0
19 13 10 13 25 22 32 20 15 -5 61 36 51 45 -3 3 7 6 22 6 15 0 29 7 33 16 3 8
12 13 19 10 7 -3 26 7 41 23 16 15 41 31 56 35 17 4 25 11 21 18 -5 7 1 9 18
6 20 -4 30 2 48 29 17 25 26 31 36 22 9 -8 15 -5 24 11 6 11 16 17 22 14 7 -4
8 -3 4 5 -7 11 7 20 37 25 18 2 48 32 40 40 -3 3 8 9 26 12 18 4 35 13 38 20
2 7 13 11 24 9 11 -2 22 2 26 10 3 8 10 12 16 8 5 -3 7 -1 4 4 -8 13 18 37 35
31 14 -4 59 37 50 46 -3 3 6 6 20 6 14 0 31 7 38 15 7 9 20 13 28 10 8 -3 16
2 19 14 3 11 12 18 21 16 10 -2 22 -4 28 -4 7 -1 11 -16 10 -38 -1 -26 3 -37
12 -35 6 1 12 -7 12 -19 0 -11 7 -27 16 -36 8 -9 13 -21 11 -27 -5 -12 18 -38
26 -30 2 3 4 -3 4 -13 0 -35 3 -44 13 -38 6 4 10 -12 10 -39 0 -32 4 -45 13
-43 7 1 12 -8 11 -20 0 -13 7 -25 16 -28 11 -3 15 -16 14 -38 0 -21 6 -38 20
-49 16 -14 18 -20 8 -26 -10 -7 -7 -13 11 -27 16 -11 23 -25 20 -36 -4 -12 0
-19 10 -19 11 0 15 -10 13 -38 -1 -25 3 -36 12 -35 6 2 12 -6 12 -18 0 -11 6
-27 14 -35 8 -8 13 -23 11 -34 -2 -11 0 -18 5 -15 13 8 27 -25 25 -57 -1 -19
4 -28 19 -32 18 -5 19 -8 6 -16 -11 -7 -11 -10 -2 -10 7 0 10 -5 7 -10 -3 -6
1 -13 9 -16 9 -3 16 -16 16 -27 0 -44 4 -57 17 -57 7 0 13 -6 13 -14 0 -9 9
-12 28 -10 38 4 86 6 92 4 18 -6 100 -4 100 3 0 5 5 5 11 1 17 -10 129 -10
133 1 3 6 5 5 5 -1 1 -8 12 -9 35 -4 19 4 37 5 40 2 9 -8 96 -8 96 1 0 5 5 5
11 1 16 -9 119 -10 119 -1 0 5 5 5 12 1 20 -12 452 -8 456 5 2 6 -3 13 -10 16
-8 3 -13 19 -13 38 1 21 -5 37 -17 45 -16 12 -17 17 -6 30 7 10 8 14 4 10 -11
-10 -35 21 -36 45 0 10 -6 20 -14 23 -8 3 -12 17 -11 35 2 18 -4 34 -14 42 -9
6 -16 20 -16 30 0 9 -4 17 -9 16 -14 -1 -26 25 -15 32 7 4 4 13 -7 23 -9 9
-18 30 -19 45 -3 34 -13 53 -24 46 -5 -2 -8 3 -8 13 0 34 -3 43 -13 37 -7 -4
-10 6 -8 28 1 21 -4 41 -15 51 -9 9 -14 23 -11 30 3 8 -3 17 -14 20 -14 5 -18
13 -15 26 3 12 -1 22 -10 26 -9 3 -15 17 -15 34 1 16 -5 37 -13 46 -7 9 -14
24 -14 33 0 9 -6 15 -12 14 -7 -2 -12 0 -12 5 4 21 -3 42 -17 56 -8 9 -12 20
-9 26 3 5 1 10 -5 10 -7 0 -8 6 -1 18 7 14 5 21 -9 30 -11 7 -17 18 -14 27 4
8 1 15 -5 15 -5 0 -15 10 -22 21 -9 17 -8 20 3 13 11 -6 11 -5 -1 9 -9 12 -10
17 -2 17 7 0 2 10 -9 22 -11 12 -18 28 -16 35 3 7 -3 17 -14 23 -10 5 -17 18
-16 27 2 10 -3 23 -11 28 -7 6 -14 26 -16 45 -2 20 -8 34 -15 33 -7 -2 -11 0
-11 5 4 26 -3 52 -15 52 -9 0 -12 7 -9 19 3 13 -2 24 -15 32 -15 10 -19 20
-15 39 3 17 -1 33 -11 43 -9 8 -16 25 -16 37 0 12 -4 18 -10 15 -9 -6 -14 8
-11 28 2 13 -26 37 -33 29 -4 -4 -3 6 3 20 7 18 7 29 0 33 -5 4 -7 11 -4 16 4
5 -1 9 -9 9 -10 0 -16 9 -16 21 0 11 -6 27 -14 34 -7 8 -12 28 -11 45 2 23 -1
30 -11 26 -8 -3 -13 -2 -13 2 3 21 -3 42 -16 56 -9 8 -15 19 -14 23 3 20 -2
33 -14 33 -9 0 -13 11 -12 32 1 32 -13 60 -27 52 -3 -2 -4 4 -1 14 2 11 -3 26
-11 35 -9 8 -16 25 -16 37 0 12 -4 18 -10 15 -5 -3 -11 0 -11 7 -1 13 -4 40
-7 66 -1 7 -7 10 -13 6 -7 -4 -9 1 -7 12 2 11 -5 27 -15 36 -11 10 -17 24 -14
31 3 8 -4 22 -14 31 -11 9 -17 21 -14 26 3 6 0 10 -7 10 -9 0 -9 3 2 10 13 9
11 13 -10 30 -17 13 -20 20 -10 20 13 0 13 1 0 10 -13 9 -13 10 0 10 9 1 5 5
-8 10 -13 6 -22 15 -21 22 3 26 -1 38 -14 38 -9 0 -13 11 -12 33 1 18 -5 38
-14 47 -9 8 -16 21 -17 28 -2 29 -5 33 -15 27 -6 -4 -10 -1 -8 6 5 38 -2 79
-13 77 -7 -2 -12 8 -13 22 0 15 -6 25 -15 25 -10 0 -14 8 -12 23 2 13 -3 25
-12 28 -9 3 -14 18 -14 35 1 16 -6 37 -14 47 -9 9 -14 25 -13 35 2 13 -1 17
-11 13 -7 -3 -13 -2 -13 2 4 21 -3 42 -17 56 -8 9 -12 20 -9 26 3 5 1 10 -5
10 -7 0 -8 6 -1 18 7 14 5 21 -10 30 -11 7 -17 17 -14 23 4 5 -4 18 -17 29
-13 11 -17 19 -11 20 9 0 10 7 3 24 -5 13 -6 27 -3 30 4 3 -2 6 -11 6 -14 0
-17 6 -14 25 3 13 1 22 -3 19 -10 -6 -28 27 -22 43 2 6 -4 14 -15 17 -14 5
-17 13 -14 37 3 22 0 34 -12 41 -9 5 -16 20 -16 32 0 13 -7 26 -15 30 -8 3
-12 12 -9 20 3 9 -3 19 -17 26 -17 10 -19 14 -8 21 11 7 11 9 1 9 -9 0 -10 5
-3 18 7 14 5 21 -10 30 -11 7 -19 23 -19 38 0 14 -4 23 -10 19 -11 -7 -12 -2
-13 43 -1 15 -9 34 -18 42 -9 8 -15 23 -13 33 1 9 -4 17 -12 17 -8 0 -14 10
-14 24 0 13 -7 26 -15 30 -8 3 -12 12 -9 20 6 14 -58 86 -77 86 -6 0 -7 5 -4
10 5 8 -8 15 -17 8 -8 -4 -48 24 -44 31 5 7 -40 7 -69 1 -5 -1 -12 -1 -15 0
-15 6 -88 5 -84 -2 3 -4 -5 -4 -18 1 -31 11 -41 11 -55 -1 -7 -6 -13 -6 -13
-1 0 5 -9 9 -20 10 -11 1 -18 -2 -15 -8 4 -5 -3 -6 -17 -1 -27 10 -39 9 -55
-1 -7 -5 -13 -4 -13 0 0 5 -9 9 -20 10 -11 1 -18 -2 -15 -8 4 -5 -3 -5 -18 0
-13 5 -30 5 -37 1 -8 -5 -19 -6 -25 -2 -14 9 -37 9 -57 0 -9 -5 -19 -4 -22 0
-6 10 -57 9 -73 -1 -7 -5 -13 -4 -13 0 0 5 -9 9 -20 10 -11 1 -18 -2 -15 -7 3
-6 -1 -7 -10 -4 -27 11 -89 11 -102 1 -8 -6 -13 -6 -13 0 0 5 -9 9 -20 10 -11
1 -18 -2 -15 -7 3 -6 -1 -7 -10 -4 -27 11 -89 11 -102 1 -8 -6 -13 -6 -13 0 0
5 -9 9 -20 10 -11 1 -18 -2 -15 -7 3 -6 -1 -7 -10 -4 -27 11 -89 11 -102 1 -8
-6 -13 -6 -13 0 0 5 -9 9 -20 10 -11 1 -18 -2 -15 -7z m591 -1111 c1 -8 2 -20
3 -26 0 -7 7 -13 14 -13 9 0 11 -12 9 -40 -3 -31 -1 -40 9 -38 8 2 14 -5 14
-17 0 -11 8 -26 17 -33 9 -7 15 -21 13 -32 -2 -13 2 -20 11 -20 13 0 19 -20
15 -44 -4 -18 22 -55 33 -49 6 4 5 0 -2 -9 -11 -14 -10 -18 6 -30 12 -9 18
-24 17 -45 -1 -19 4 -34 12 -37 7 -3 13 -17 13 -31 0 -15 4 -24 9 -20 6 3 15
-4 21 -15 8 -15 8 -20 -2 -20 -7 -1 -3 -9 9 -19 14 -12 21 -27 18 -40 -2 -11
3 -27 11 -35 8 -8 14 -24 14 -36 0 -14 8 -24 21 -27 16 -4 17 -8 7 -14 -11 -7
-11 -9 1 -9 10 0 11 -3 2 -14 -9 -11 -7 -15 9 -19 16 -4 20 -11 16 -31 -3 -15
3 -33 14 -46 10 -12 16 -29 13 -37 -4 -10 -2 -14 4 -10 13 8 28 -46 19 -62 -4
-5 1 -14 9 -19 14 -7 21 -24 24 -55 1 -5 6 -5 11 -2 10 6 14 -15 11 -44 -2 -7
2 -10 8 -6 6 3 12 0 13 -7 0 -7 2 -17 3 -23 2 -5 3 -18 4 -27 0 -9 8 -24 17
-32 8 -9 12 -20 9 -26 -3 -6 0 -13 8 -16 18 -6 30 -44 14 -44 -6 0 -7 -3 -3
-7 4 -5 13 -8 19 -8 7 0 12 -15 13 -34 1 -19 8 -39 16 -45 8 -6 14 -21 13 -33
-1 -14 5 -23 18 -27 10 -2 16 -9 12 -15 -8 -14 19 -53 30 -43 5 4 4 0 -1 -8
-12 -22 -14 -40 -3 -40 6 0 8 -4 4 -9 -3 -6 1 -13 9 -18 15 -8 16 -11 16 -39
0 -8 5 -12 10 -9 6 4 10 -5 10 -19 0 -15 8 -31 19 -38 15 -9 17 -16 10 -30 -7
-13 -6 -18 3 -18 10 0 10 -2 -1 -9 -11 -7 -9 -11 8 -21 12 -6 20 -17 18 -23
-2 -7 1 -19 8 -27 21 -25 28 -60 13 -60 -11 0 -11 -2 0 -9 10 -6 9 -10 -7 -14
-12 -3 -21 0 -21 6 0 8 -3 8 -8 2 -4 -5 -38 -10 -77 -10 -38 0 -73 5 -77 10
-5 7 -8 7 -8 0 0 -6 -31 -10 -72 -10 -40 0 -76 5 -80 10 -5 7 -8 7 -8 0 0 -6
-32 -10 -75 -10 -43 0 -75 4 -75 10 0 7 -3 7 -8 0 -4 -5 -38 -10 -77 -10 -38
0 -73 5 -77 10 -5 7 -8 7 -8 0 0 -11 -400 -12 -418 -1 -7 4 -12 4 -12 -1 0
-10 -52 -9 -68 1 -7 4 -12 4 -12 -1 0 -11 -343 -10 -351 1 -4 4 2 17 13 28 17
17 18 22 7 29 -11 7 -11 9 -1 9 7 0 20 7 28 15 9 8 12 15 7 15 -5 0 -9 9 -10
20 -1 11 2 18 7 15 6 -3 7 0 4 8 -3 8 2 17 10 20 9 4 13 15 11 26 -2 13 3 22
14 26 13 4 16 13 13 33 -2 18 2 33 12 41 9 8 16 24 16 38 0 13 4 22 9 19 11
-7 23 22 15 35 -3 5 -1 9 5 9 6 0 15 10 22 21 9 17 8 20 -3 13 -11 -6 -11 -5
0 8 9 11 9 18 3 23 -7 4 -7 11 2 19 6 8 15 12 20 9 4 -2 7 7 7 22 0 14 7 28
15 31 10 4 13 15 10 31 -2 15 2 32 11 41 9 8 13 24 10 34 -2 11 -2 17 1 14 10
-10 32 15 26 30 -3 8 1 14 8 14 7 0 10 3 6 6 -3 4 0 13 8 20 8 8 12 24 10 36
-3 12 2 26 10 32 8 6 16 22 19 36 2 14 9 24 16 22 6 -1 10 3 7 10 -2 7 4 27
14 44 10 17 17 40 14 52 -2 14 2 23 15 27 12 4 17 12 13 22 -4 9 1 21 11 29
10 7 15 17 12 23 -4 5 -2 12 4 16 6 4 8 11 4 16 -3 5 0 8 7 7 8 -2 14 9 15 30
3 52 3 54 18 49 11 -4 13 2 9 26 -3 18 -1 29 3 25 13 -14 36 13 23 28 -8 9 -5
15 10 23 15 9 19 19 17 45 -3 27 0 35 15 39 12 3 17 11 14 19 -3 8 1 21 10 28
8 7 15 23 15 36 0 13 5 23 12 22 7 -2 13 11 14 34 1 20 9 44 18 54 14 14 15
19 4 25 -10 7 -9 9 3 9 21 0 32 26 23 53 -4 14 -3 17 6 12 9 -6 11 -4 5 5 -4
7 -2 16 6 20 7 5 14 16 15 25 1 9 10 25 18 34 9 10 13 21 9 25 -5 4 0 13 9 20
10 7 16 22 13 33 -2 15 1 20 13 19 9 -2 18 -9 18 -17z"/>
</g>
</svg>
